HIERARCHY
ROOT Hips
{
	OFFSET 0.000000 100.481300 0.000000
	CHANNELS 6 Xposition Yposition Zposition Xrotation Yrotation Zrotation 
	JOINT Spine
	{
		OFFSET -0.279200 12.230698 -2.892100
		CHANNELS 3 Xrotation Yrotation Zrotation
		JOINT Spine1
		{
			OFFSET -0.232667 10.192268 -1.242267
			CHANNELS 3 Xrotation Yrotation Zrotation
			JOINT Spine1_split
			{
				OFFSET -0.232667 10.192268 -1.242267
				CHANNELS 3 Xrotation Yrotation Zrotation
				JOINT Spine2
				{
					OFFSET -0.232667 10.192268 -1.242267
					CHANNELS 3 Xrotation Yrotation Zrotation
					JOINT Neck
					{
						OFFSET -0.418800 17.814194 8.416900
						CHANNELS 3 Xrotation Yrotation Zrotation
						JOINT Head
						{
							OFFSET 0.000000 7.031097 3.806800
							CHANNELS 3 Xrotation Yrotation Zrotation
							JOINT HeadTop_End
							{
								OFFSET 0.000000 24.646606 12.978600
								CHANNELS 3 Xrotation Yrotation Zrotation
								End Site
								{
									OFFSET 0.000000 0.000000 0.000000
								}
							}
						}
					}
					JOINT LeftShoulder
					{
						OFFSET 8.476499 7.247704 -3.868750
						CHANNELS 3 Xrotation Yrotation Zrotation
						JOINT LeftShoulder_split
						{
							OFFSET 8.476499 7.247704 -3.868750
							CHANNELS 3 Xrotation Yrotation Zrotation
							JOINT LeftArm
							{
								OFFSET 9.308998 -2.777710 0.208600
								CHANNELS 3 Xrotation Yrotation Zrotation
								JOINT LeftForeArm
								{
									OFFSET 29.972298 0.000000 0.000000
									CHANNELS 3 Xrotation Yrotation Zrotation
									JOINT LeftHand
									{
										OFFSET 26.026505 0.000000 0.000000
										CHANNELS 3 Xrotation Yrotation Zrotation
										JOINT LeftHandThumb1
										{
											OFFSET 12.240501 -7.147949 9.207150
											CHANNELS 3 Xrotation Yrotation Zrotation
											JOINT LeftHandThumb2
											{
												OFFSET 4.138618 -2.389435 2.389433
												CHANNELS 3 Xrotation Yrotation Zrotation
												JOINT LeftHandThumb3
												{
													OFFSET 2.726913 -1.574387 1.574386
													CHANNELS 3 Xrotation Yrotation Zrotation
													JOINT LeftHandThumb4
													{
														OFFSET 3.941010 -2.275345 2.275342
														CHANNELS 3 Xrotation Yrotation Zrotation
														End Site
														{
															OFFSET 0.000000 0.000000 0.000000
														}
													}
												}
											}
										}
										JOINT LeftHandIndex1
										{
											OFFSET 24.424698 -1.985611 5.953459
											CHANNELS 3 Xrotation Yrotation Zrotation
											JOINT LeftHandIndex2
											{
												OFFSET 6.426697 0.000000 0.000000
												CHANNELS 3 Xrotation Yrotation Zrotation
												JOINT LeftHandIndex3
												{
													OFFSET 5.337898 0.000000 0.000000
													CHANNELS 3 Xrotation Yrotation Zrotation
													JOINT LeftHandIndex4
													{
														OFFSET 4.409401 0.000000 0.000000
														CHANNELS 3 Xrotation Yrotation Zrotation
														End Site
														{
															OFFSET 0.000000 0.000000 0.000000
														}
													}
												}
											}
										}
										JOINT LeftHandMiddle1
										{
											OFFSET 23.810104 0.000000 0.000000
											CHANNELS 3 Xrotation Yrotation Zrotation
											JOINT LeftHandMiddle2
											{
												OFFSET 7.176498 0.000000 0.000000
												CHANNELS 3 Xrotation Yrotation Zrotation
												JOINT LeftHandMiddle3
												{
													OFFSET 6.774902 0.000000 0.000000
													CHANNELS 3 Xrotation Yrotation Zrotation
													JOINT LeftHandMiddle4
													{
														OFFSET 5.403328 0.000000 0.000000
														CHANNELS 3 Xrotation Yrotation Zrotation
														End Site
														{
															OFFSET 0.000000 0.000000 0.000000
														}
													}
												}
											}
										}
										JOINT LeftHandRing1
										{
											OFFSET 22.908401 -0.839279 -6.020567
											CHANNELS 3 Xrotation Yrotation Zrotation
											JOINT LeftHandRing2
											{
												OFFSET 6.337502 0.000000 0.000000
												CHANNELS 3 Xrotation Yrotation Zrotation
												JOINT LeftHandRing3
												{
													OFFSET 5.779297 0.000000 0.000000
													CHANNELS 3 Xrotation Yrotation Zrotation
													JOINT LeftHandRing4
													{
														OFFSET 4.965698 0.000000 0.000000
														CHANNELS 3 Xrotation Yrotation Zrotation
														End Site
														{
															OFFSET 0.000000 0.000000 0.000000
														}
													}
												}
											}
										}
										JOINT LeftHandPinky1
										{
											OFFSET 20.037003 -1.530319 -10.950146
											CHANNELS 3 Xrotation Yrotation Zrotation
											JOINT LeftHandPinky2
											{
												OFFSET 5.254700 0.000000 0.000000
												CHANNELS 3 Xrotation Yrotation Zrotation
												JOINT LeftHandPinky3
												{
													OFFSET 4.810204 0.000000 0.000000
													CHANNELS 3 Xrotation Yrotation Zrotation
													JOINT LeftHandPinky4
													{
														OFFSET 3.647202 0.000000 0.000000
														CHANNELS 3 Xrotation Yrotation Zrotation
														End Site
														{
															OFFSET 0.000000 0.000000 0.000000
														}
													}
												}
											}
										}
									}
								}
							}
						}
					}
					JOINT RightShoulder
					{
						OFFSET -7.570500 7.247704 -3.868750
						CHANNELS 3 Xrotation Yrotation Zrotation
						JOINT RightShoulder_split
						{
							OFFSET -7.570500 7.247704 -3.868750
							CHANNELS 3 Xrotation Yrotation Zrotation
							JOINT RightArm
							{
								OFFSET -9.308998 -2.777710 0.208500
								CHANNELS 3 Xrotation Yrotation Zrotation
								JOINT RightForeArm
								{
									OFFSET -29.972300 0.000000 0.000000
									CHANNELS 3 Xrotation Yrotation Zrotation
									JOINT RightHand
									{
										OFFSET -26.026505 0.000000 0.000000
										CHANNELS 3 Xrotation Yrotation Zrotation
										JOINT RightHandThumb1
										{
											OFFSET -12.240601 -7.148026 9.207092
											CHANNELS 3 Xrotation Yrotation Zrotation
											JOINT RightHandThumb2
											{
												OFFSET -4.138618 -2.389435 2.389433
												CHANNELS 3 Xrotation Yrotation Zrotation
												JOINT RightHandThumb3
												{
													OFFSET -2.726974 -1.574417 1.574421
													CHANNELS 3 Xrotation Yrotation Zrotation
													JOINT RightHandThumb4
													{
														OFFSET -3.941010 -2.275345 2.275343
														CHANNELS 3 Xrotation Yrotation Zrotation
														End Site
														{
															OFFSET 0.000000 0.000000 0.000000
														}
													}
												}
											}
										}
										JOINT RightHandIndex1
										{
											OFFSET -24.424698 -1.985657 5.953444
											CHANNELS 3 Xrotation Yrotation Zrotation
											JOINT RightHandIndex2
											{
												OFFSET -6.426697 0.000000 0.000000
												CHANNELS 3 Xrotation Yrotation Zrotation
												JOINT RightHandIndex3
												{
													OFFSET -5.337898 0.000000 0.000000
													CHANNELS 3 Xrotation Yrotation Zrotation
													JOINT RightHandIndex4
													{
														OFFSET -4.409401 0.000000 0.000000
														CHANNELS 3 Xrotation Yrotation Zrotation
														End Site
														{
															OFFSET 0.000000 0.000000 0.000000
														}
													}
												}
											}
										}
										JOINT RightHandMiddle1
										{
											OFFSET -23.810097 0.000000 0.000000
											CHANNELS 3 Xrotation Yrotation Zrotation
											JOINT RightHandMiddle2
											{
												OFFSET -7.176498 0.000000 0.000000
												CHANNELS 3 Xrotation Yrotation Zrotation
												JOINT RightHandMiddle3
												{
													OFFSET -6.774902 0.000000 0.000000
													CHANNELS 3 Xrotation Yrotation Zrotation
													JOINT RightHandMiddle4
													{
														OFFSET -5.403328 0.000000 0.000000
														CHANNELS 3 Xrotation Yrotation Zrotation
														End Site
														{
															OFFSET 0.000000 0.000000 0.000000
														}
													}
												}
											}
										}
										JOINT RightHandRing1
										{
											OFFSET -22.908302 -0.839325 -6.020576
											CHANNELS 3 Xrotation Yrotation Zrotation
											JOINT RightHandRing2
											{
												OFFSET -6.337502 0.000000 0.000000
												CHANNELS 3 Xrotation Yrotation Zrotation
												JOINT RightHandRing3
												{
													OFFSET -5.779297 0.000000 0.000000
													CHANNELS 3 Xrotation Yrotation Zrotation
													JOINT RightHandRing4
													{
														OFFSET -4.965698 0.000000 0.000000
														CHANNELS 3 Xrotation Yrotation Zrotation
														End Site
														{
															OFFSET 0.000000 0.000000 0.000000
														}
													}
												}
											}
										}
										JOINT RightHandPinky1
										{
											OFFSET -20.037003 -1.530334 -10.950259
											CHANNELS 3 Xrotation Yrotation Zrotation
											JOINT RightHandPinky2
											{
												OFFSET -5.254700 0.000000 0.000000
												CHANNELS 3 Xrotation Yrotation Zrotation
												JOINT RightHandPinky3
												{
													OFFSET -4.810204 0.000000 0.000000
													CHANNELS 3 Xrotation Yrotation Zrotation
													JOINT RightHandPinky4
													{
														OFFSET -3.647202 0.000000 0.000000
														CHANNELS 3 Xrotation Yrotation Zrotation
														End Site
														{
															OFFSET 0.000000 0.000000 0.000000
														}
													}
												}
											}
										}
									}
								}
							}
						}
					}
				}
			}
		}
	}
	JOINT LeftUpLeg
	{
		OFFSET 15.427100 -6.655098 0.678600
		CHANNELS 3 Xrotation Yrotation Zrotation
		JOINT LeftLeg
		{
			OFFSET 4.081073 -39.591068 13.024000
			CHANNELS 3 Xrotation Yrotation Zrotation
			JOINT LeftFoot
			{
				OFFSET -4.081074 -37.707932 -15.979700
				CHANNELS 3 Xrotation Yrotation Zrotation
				JOINT LeftToeBase
				{
					OFFSET 5.346399 -15.068900 20.645000
					CHANNELS 3 Xrotation Yrotation Zrotation
					JOINT LeftToe_End
					{
						OFFSET 2.754700 0.931300 11.300900
						CHANNELS 3 Xrotation Yrotation Zrotation
						End Site
						{
							OFFSET 0.000000 0.000000 0.000000
						}
					}
				}
			}
		}
	}
	JOINT RightUpLeg
	{
		OFFSET -15.569500 -6.655098 0.678600
		CHANNELS 3 Xrotation Yrotation Zrotation
		JOINT RightLeg
		{
			OFFSET -4.081825 -39.591045 13.023800
			CHANNELS 3 Xrotation Yrotation Zrotation
			JOINT RightFoot
			{
				OFFSET 4.081824 -37.707954 -15.979600
				CHANNELS 3 Xrotation Yrotation Zrotation
				JOINT RightToeBase
				{
					OFFSET -5.346400 -15.068900 20.645000
					CHANNELS 3 Xrotation Yrotation Zrotation
					JOINT RightToe_End
					{
						OFFSET -2.754700 0.931300 11.300900
						CHANNELS 3 Xrotation Yrotation Zrotation
						End Site
						{
							OFFSET 0.000000 0.000000 0.000000
						}
					}
				}
			}
		}
	}
}
MOTION
Frames: 5
Frame Time: 0.016667
13.979548 69.996353 -5.118642 45.121503 -82.241113 45.605358 1.311041 4.652208 3.326100 1.685962 3.692190 0.960057 0.000000 0.000000 0.000000 1.613180 3.756747 0.980635 -3.532981 9.176828 -1.132676 -3.451489 43.959781 -1.786094 -0.000000 -0.000000 0.000000 0.705583 8.677179 -8.120510 0.000000 0.000000 0.000000 -7.703511 12.546988 -67.827801 0.000032 -117.532475 0.000029 -2.759531 -37.106184 22.103056 -9.674878 0.269254 1.575498 21.035319 31.264737 -3.204853 -14.510739 -15.900105 5.153347 -0.000001 -0.000001 0.000001 -2.849084 3.303448 -72.216341 3.992253 5.548923 -71.446709 1.747144 4.174027 -45.411015 -0.000003 0.000003 0.000001 -2.178469 6.191020 -74.467818 5.106531 5.803658 -82.676920 3.445820 5.335401 -65.690150 0.000002 0.000001 0.000001 -2.999863 7.957873 -88.252895 5.714715 5.849488 -88.662344 2.469285 4.777544 -54.644529 0.000001 -0.000000 -0.000002 0.216258 8.542500 -93.244288 6.059370 5.847375 -92.043786 5.040801 5.794878 -82.026419 -0.000001 0.000002 -0.000001 0.563285 13.344027 9.556958 0.000000 0.000000 0.000000 -10.871300 35.898641 46.529410 0.000121 101.265150 -0.000154 18.782686 12.790220 -36.872397 -6.752287 7.209113 -18.581256 21.136608 -37.182515 16.258982 -4.776901 10.706929 -21.836991 0.000000 -0.000002 -0.000001 -3.537848 10.196850 38.911451 4.634928 -4.657109 89.726160 1.152124 -3.068492 41.151473 0.000000 -0.000000 -0.000000 -5.052440 -1.676069 58.106352 3.618996 -4.540226 77.105760 1.323034 -3.253414 44.250327 0.000001 -0.000003 -0.000001 -3.873856 -2.931545 61.582679 4.483699 -4.653941 87.863021 1.062197 -2.962586 39.442290 0.000000 -0.000001 -0.000005 -1.856261 -4.598480 67.393941 2.939835 -4.329613 68.339751 1.336470 -3.267146 44.486579 0.000001 -0.000001 0.000002 -27.571551 -13.205022 30.817206 47.609714 -11.197853 8.327583 -25.621768 2.378622 -26.287219 -13.959448 -0.000027 -0.000003 0.000000 0.000000 -0.000001 -17.514084 8.924866 -34.417948 45.021134 9.198338 -7.725420 -35.300351 -1.874811 28.012890 -8.845078 0.000035 -0.000002 0.000000 -0.000000 -0.000000 
13.638946 70.503860 -5.174860 35.177079 -81.669152 35.529633 1.309288 4.490754 3.523889 1.674577 3.524484 1.048239 0.000000 0.000000 0.000000 1.609791 3.584459 1.064621 -2.945498 8.978257 -1.211497 -3.441614 42.960411 -1.394686 -0.000000 0.000002 -0.000000 0.654793 7.533260 -7.402832 0.000000 0.000000 0.000000 -5.403846 12.550899 -68.677757 -0.000032 -118.249726 -0.000029 -3.995486 -36.802398 21.789485 -9.674878 0.269257 1.575497 21.019298 31.210297 -3.199422 -14.525681 -15.951241 5.140675 0.000001 -0.000002 0.000002 -2.853316 3.302251 -72.160908 3.986854 5.547121 -71.391145 1.743115 4.170076 -45.355683 -0.000001 -0.000001 -0.000002 -2.182404 6.183201 -74.413162 5.100818 5.802929 -82.620502 3.440672 5.333075 -65.634662 0.000000 -0.000001 -0.000002 -3.005541 7.949395 -88.198376 5.708915 5.849355 -88.605435 2.464667 4.774282 -54.589170 -0.000000 -0.000000 0.000001 0.210115 8.537045 -93.188956 6.053659 5.847587 -91.987547 5.035189 5.794078 -81.970801 -0.000000 0.000005 -0.000002 0.654559 13.133330 8.324369 0.000000 0.000000 0.000000 -11.309114 35.091354 48.626862 0.000008 101.896314 -0.000001 19.025806 12.710611 -36.950022 -6.752288 7.209114 -18.581256 21.103599 -37.132105 16.238843 -4.776776 10.760581 -21.828576 -0.000000 -0.000001 0.000001 -3.540185 10.199001 38.856482 4.630424 -4.657059 89.670644 1.149158 -3.065112 41.096159 -0.000000 0.000001 -0.000001 -5.052157 -1.666594 58.052462 3.614513 -4.539172 77.048953 1.319904 -3.250196 44.195063 -0.000000 -0.000001 0.000003 -3.874710 -2.923205 61.528379 4.479132 -4.653769 87.806624 1.059343 -2.959117 39.387030 -0.000000 -0.000000 -0.000001 -1.858681 -4.592080 67.339054 2.935613 -4.327940 68.283799 1.333322 -3.263928 44.431272 0.000001 0.000002 -0.000002 -27.206479 -13.031440 30.688272 46.534181 -11.033533 8.379714 -25.586189 1.143177 -26.176703 -13.628657 0.000023 0.000007 -0.000000 0.000001 -0.000001 -16.187799 7.997818 -34.259703 44.895571 9.531222 -7.754734 -33.857958 -2.072823 28.338375 -10.408200 -0.000021 -0.000015 -0.000000 -0.000002 -0.000000 
13.000226 72.200089 -5.137054 24.643234 -80.127770 24.944300 1.185975 4.484630 3.737062 1.555127 3.451238 1.016178 0.000000 0.000000 0.000000 1.491296 3.510715 1.023371 -2.505826 8.602207 -1.279736 -2.965686 40.944682 -0.795753 0.000000 0.000001 -0.000000 0.633904 7.205938 -6.991779 0.000000 0.000000 0.000000 -4.027033 9.964020 -67.472065 -0.000001 -118.092987 -0.000007 -4.207149 -36.031720 21.229141 -9.674884 0.269257 1.575500 20.999825 31.142452 -3.192797 -14.544239 -16.014929 5.124847 0.000001 -0.000001 0.000003 -2.859088 3.300598 -72.091923 3.980182 5.544878 -71.321969 1.738111 4.165152 -45.286777 0.000000 0.000000 0.000001 -2.187315 6.173460 -74.345072 5.093731 5.802019 -82.550288 3.434251 5.330182 -65.565595 -0.000001 -0.000002 0.000001 -3.012967 7.938803 -88.130484 5.701688 5.849161 -88.534565 2.458930 4.770208 -54.520233 0.000003 -0.000000 -0.000004 0.202158 8.530256 -93.120060 6.046521 5.847814 -91.917537 5.028200 5.793115 -81.901577 0.000001 -0.000001 -0.000000 0.703598 12.600972 7.607052 0.000000 0.000000 0.000000 -10.772640 34.147565 49.737670 -0.000065 103.261061 0.000051 18.710996 12.211367 -37.120644 -6.752287 7.209114 -18.581256 21.063293 -37.069052 16.214044 -4.776255 10.827360 -21.818104 0.000001 -0.000005 0.000000 -3.543123 10.201708 38.788088 4.624832 -4.657050 89.601529 1.145488 -3.060891 41.027300 -0.000000 0.000001 -0.000001 -5.052108 -1.654607 57.985424 3.608931 -4.537938 76.978295 1.316016 -3.246204 44.126290 0.000000 0.000000 0.000001 -3.875790 -2.912830 61.460774 4.473422 -4.653568 87.736375 1.055817 -2.954801 39.318237 0.000002 -0.000001 -0.000001 -1.861650 -4.584144 67.270724 2.930371 -4.325866 68.214151 1.329414 -3.259923 44.362427 0.000001 0.000000 -0.000002 -27.737815 -12.139458 30.044377 44.286930 -10.871952 8.532890 -23.276579 -2.359715 -26.640977 -13.760236 -0.000004 -0.000010 -0.000000 -0.000000 0.000000 -14.206057 5.949642 -33.673563 43.491431 10.105799 -8.012690 -30.570687 -2.409320 28.560250 -13.678667 -0.000000 -0.000000 -0.000000 -0.000000 0.000000 
12.206134 74.711273 -5.212684 16.611078 -77.742142 16.950875 0.983053 4.562937 3.870588 1.364927 3.425535 0.933034 0.000000 0.000000 0.000000 1.299351 3.485007 0.928855 -2.094437 8.124936 -1.381035 -2.236922 38.340755 -0.194028 0.000000 -0.000001 0.000000 0.623447 7.184063 -6.717687 0.000000 0.000000 0.000000 -3.255295 6.222750 -65.186287 0.000044 -117.506356 0.000024 -3.863564 -34.828545 20.605535 -9.674878 0.269255 1.575501 20.976978 31.061713 -3.185061 -14.566376 -16.090677 5.105791 0.000002 -0.000003 -0.000001 -2.866255 3.298525 -72.009885 3.972225 5.542192 -71.239679 1.732163 4.159252 -45.204849 -0.000000 0.000001 0.000002 -2.193119 6.161875 -74.264128 5.085278 5.800908 -82.466775 3.426613 5.326726 -65.483407 -0.000003 0.000003 -0.000001 -3.022122 7.926191 -88.049738 5.693089 5.848951 -88.450253 2.452118 4.765365 -54.438216 0.000003 -0.000001 0.000001 0.192396 8.522190 -93.038118 6.038025 5.848081 -91.834257 5.019892 5.791925 -81.819232 -0.000002 0.000001 -0.000001 0.732047 11.989980 7.098540 0.000000 0.000000 0.000000 -9.801462 33.018910 50.192714 0.000155 104.960057 -0.000149 18.245344 11.392862 -37.011286 -6.752291 7.209114 -18.581256 21.015939 -36.993862 16.184932 -4.775319 10.906791 -21.805562 0.000000 -0.000001 -0.000001 -3.546602 10.204941 38.706747 4.618159 -4.657015 89.519314 1.141125 -3.055856 40.945369 -0.000000 0.000001 -0.000001 -5.052275 -1.640190 57.905702 3.602265 -4.536379 76.894195 1.311369 -3.241423 44.044458 -0.000002 0.000000 0.000001 -3.877031 -2.900488 61.380417 4.466666 -4.653278 87.652842 1.051580 -2.949655 39.236428 0.000001 0.000002 0.000000 -1.865162 -4.574699 67.189493 2.924115 -4.323371 68.131321 1.324762 -3.255166 44.280519 0.000002 0.000002 -0.000001 -28.706223 -10.685409 28.978304 41.064931 -10.813748 8.777983 -19.295428 -7.077826 -26.902730 -14.683525 -0.000003 0.000000 -0.000000 -0.000001 -0.000000 -12.215216 3.509135 -32.793350 41.700432 10.583958 -8.235612 -25.449454 -2.678676 28.684506 -17.632605 0.000001 0.000003 -0.000001 0.000000 -0.000000 
11.384948 77.760658 -5.579917 11.822506 -74.748887 12.290221 0.705496 4.742441 3.800400 1.114442 3.453954 0.841623 0.000000 0.000000 0.000000 1.046907 3.510683 0.826997 -1.657622 7.599710 -1.553460 -1.402076 35.441695 0.205196 0.000000 -0.000001 0.000000 0.622373 7.388865 -6.522933 0.000000 0.000000 0.000000 -3.305168 1.831706 -62.504502 0.000024 -116.730255 0.000034 -2.863091 -33.138282 20.138541 -9.674879 0.269254 1.575500 20.950690 30.968610 -3.176370 -14.591446 -16.178203 5.083674 0.000002 0.000001 0.000001 -2.874391 3.296157 -71.915253 3.963070 5.539099 -71.144767 1.725330 4.152469 -45.110305 0.000003 -0.000001 0.000001 -2.199812 6.148499 -74.170766 5.075563 5.799623 -82.370428 3.417828 5.322724 -65.388638 -0.000003 -0.000003 -0.000001 -3.032592 7.911640 -87.956622 5.683198 5.848670 -88.353012 2.444269 4.759762 -54.343645 0.000001 -0.000000 0.000001 0.181168 8.512863 -92.943575 6.028248 5.848402 -91.738170 5.010309 5.790541 -81.724231 -0.000002 0.000004 -0.000002 0.759105 11.455927 6.590180 0.000000 0.000000 0.000000 -8.862473 31.696729 50.076071 0.000037 106.701912 -0.000035 18.109850 10.249124 -36.202113 -6.752290 7.209109 -18.581256 20.961272 -36.907235 16.151647 -4.774413 10.998452 -21.790972 0.000001 0.000001 0.000000 -3.550610 10.208696 38.612907 4.610443 -4.656918 89.424498 1.136086 -3.050060 40.850911 0.000001 -0.000001 -0.000000 -5.052413 -1.623614 57.813726 3.594585 -4.534584 76.797220 1.306049 -3.235917 43.950088 0.000000 -0.000001 -0.000001 -3.878811 -2.886064 61.287677 4.458851 -4.652942 87.556509 1.046729 -2.943714 39.142038 0.000001 0.000000 -0.000002 -1.869222 -4.563811 67.095755 2.916928 -4.320468 68.035788 1.319406 -3.249658 44.186058 -0.000001 -0.000000 0.000002 -30.268649 -8.788292 27.445216 37.214436 -10.994387 9.291938 -13.675748 -12.891401 -26.579543 -17.753627 -0.000007 -0.000004 -0.000000 -0.000001 0.000001 -10.825751 1.174086 -31.795466 40.037312 10.734487 -8.081097 -18.468169 -2.854510 28.801187 -22.022890 0.000017 -0.000001 -0.000000 -0.000002 0.000000 
